<svg xmlns="http://www.w3.org/2000/svg" width="48" height="48" fill="none"><path fill="#EAB6AC" d="M4 10a3 3 0 013-3h34a3 3 0 013 3v28a3 3 0 01-3 3H7a3 3 0 01-3-3V10z"/><path fill="#810056" d="M4 10a3 3 0 013-3h34a3 3 0 013 3v6H4v-6z"/><path fill="#fff" d="M11 26a1 1 0 01-1-1v-3a1 1 0 011-1h3a1 1 0 011 1v3a1 1 0 01-1 1h-3zm0 9a1 1 0 01-1-1v-3a1 1 0 011-1h3a1 1 0 011 1v3a1 1 0 01-1 1h-3zm11.5-9a1 1 0 01-1-1v-3a1 1 0 011-1h3a1 1 0 011 1v3a1 1 0 01-1 1h-3zm0 9a1 1 0 01-1-1v-3a1 1 0 011-1h3a1 1 0 011 1v3a1 1 0 01-1 1h-3zM34 26a1 1 0 01-1-1v-3a1 1 0 011-1h3a1 1 0 011 1v3a1 1 0 01-1 1h-3z"/><path fill="#191E3B" d="M33.5 35a.5.5 0 01-.5-.5v-4a.5.5 0 01.5-.5h4a.5.5 0 01.5.5v4a.5.5 0 01-.5.5h-4zM13 10a1 1 0 01-1-1V5a1 1 0 011-1h1a1 1 0 011 1v4a1 1 0 01-1 1h-1zm21 0a1 1 0 01-1-1V5a1 1 0 011-1h1a1 1 0 011 1v4a1 1 0 01-1 1h-1z"/><path fill="#191E3B" d="M46 36.5V28H29v8.5c0 5.217 4.25 7.236 8.5 9.5 4.25-2.264 8.5-4.283 8.5-9.5z"/><path fill="#E61E43" fill-rule="evenodd" d="M36.5 37.086l4.94-4.94a.5.5 0 01.706 0l.708.708a.5.5 0 010 .707l-5.647 5.646a1 1 0 01-1.414 0l-2.647-2.646a.5.5 0 010-.707l.708-.708a.5.5 0 01.707 0l1.939 1.94z" clip-rule="evenodd"/></svg>