<svg width="62" height="16" viewBox="0 0 62 16" fill="none" xmlns="http://www.w3.org/2000/svg">
<path fill-rule="evenodd" clip-rule="evenodd" d="M0 12.4074C0 12.4074 0.83843 6.96227 0.918281 6.48546C0.98815 6.00865 1.39739 5.13132 2.03619 4.64497C2.675 4.15863 3.48348 3.82486 4.46166 3.82486C5.43983 3.82486 6.01875 4.05373 6.34813 4.22538C6.67751 4.39703 6.88712 4.61636 6.88712 4.61636C6.88712 4.61636 7.15662 4.35889 7.69561 4.14909C8.22462 3.93929 8.59393 3.81532 9.46231 3.81532C10.3307 3.81532 11.1292 4.08234 11.4785 4.40657C11.8279 4.74034 11.9477 4.94059 12.0774 5.51277C12.0774 5.51277 12.1473 5.93236 12.0575 6.53314C11.9676 7.13392 11.1591 12.3979 11.1591 12.3979H8.87341C8.87341 12.3979 9.67191 7.21021 9.71184 6.90505C9.75176 6.60943 9.8416 5.98004 9.62201 5.70349C9.40242 5.42694 9.01315 5.36019 8.71371 5.37926C8.41427 5.39833 7.79542 5.48416 7.63572 6.42824C7.46604 7.37233 6.69748 12.3979 6.69748 12.3979H4.43171C4.43171 12.3979 5.26016 7.00041 5.30009 6.71433C5.34002 6.42824 5.38992 5.76071 4.99067 5.51277C4.59141 5.26482 3.87276 5.32204 3.5833 5.71303C3.29384 6.10401 3.22397 6.2852 3.12416 6.87645C3.02434 7.46769 2.27574 12.3979 2.27574 12.3979H0M17.4174 8.2878C17.4174 8.2878 16.9184 8.31641 16.559 8.34502C16.1997 8.37363 15.6408 8.43085 14.9321 8.67879C14.2134 8.93626 13.9439 9.46076 13.9439 10.0139C13.9439 10.5193 14.2434 11.0914 15.2016 11.1582C16.1598 11.2154 17.0581 10.6242 17.0581 10.6242L17.4174 8.2878ZM13.6744 4.61636C13.6744 4.61636 14.3432 4.15863 16.03 3.91069C17.7169 3.66274 18.3058 3.9679 19.0544 4.50193C19.803 5.03596 19.803 5.95143 19.7131 6.5236C19.6233 7.10531 18.9745 11.3203 18.9745 11.3203L18.3956 11.7494C17.6769 12.2453 16.6988 12.5219 15.521 12.6268C14.3432 12.7317 12.816 12.4361 12.2371 11.1868C11.6582 9.9471 12.0075 8.36409 13.6046 7.59166C15.2016 6.81923 17.6071 6.85737 17.6071 6.85737C17.6071 6.85737 17.7867 6.16123 17.3975 5.82746C16.9583 5.45555 16.4991 5.56998 15.511 5.72256C14.5228 5.87514 13.4149 6.33288 13.4149 6.33288L13.6744 4.61636ZM22.7375 2.14649C22.9271 1.26916 23.6158 0.55394 24.2746 0.55394C24.9334 0.55394 25.3027 1.26916 25.113 2.14649C24.9234 3.02382 24.2347 3.73903 23.5759 3.73903C22.9171 3.73903 22.5379 3.02382 22.7375 2.14649ZM19.4337 11.3585C19.4337 11.3585 22.0787 7.88728 22.1386 7.81099C22.1885 7.7347 22.2085 7.54398 22.1286 7.41047C22.0588 7.27697 20.4418 4.65451 20.3619 4.50193C20.2821 4.35889 20.1823 4.06326 20.322 3.48156C20.4617 2.89985 20.841 2.72819 21.0107 2.69959C21.1804 2.67098 21.3501 2.73773 21.5397 3.02382C21.7393 3.30991 23.3463 5.6272 23.4162 5.72256C23.4861 5.82746 23.5959 5.85607 23.6857 5.7321C23.7755 5.60813 27.0594 1.28823 27.2191 1.07843C27.3788 0.868635 27.788 0.449044 28.1773 0.391826C28.5666 0.334609 28.856 0.38229 29.1355 0.573014C29.405 0.763738 29.6446 1.16426 29.5947 1.58385C29.5448 2.00344 29.3052 2.36582 28.9259 2.82356C28.5466 3.29083 25.0831 7.30557 24.9933 7.40094C24.9034 7.4963 24.8934 7.64888 24.9234 7.77285C24.9434 7.89682 25.1629 8.17337 25.2428 8.2878C25.3227 8.40224 27.3988 11.3489 27.3988 11.3489L28.5067 4.04419H30.6627L29.3851 12.3788H28.1274L29.2453 13.9618L27.0494 15.6307C27.0494 15.6307 23.4861 9.69916 23.4362 9.61333C23.3863 9.52751 23.3064 9.40354 23.1268 9.62287C22.9471 9.83267 20.1823 13.1036 20.1823 13.1036L19.4337 11.3585ZM30.2135 12.4074C30.2135 12.4074 31.0519 6.96227 31.1318 6.48546C31.2017 6.00865 31.6109 5.13132 32.2497 4.64497C32.8885 4.15863 33.697 3.82486 34.6752 3.82486C35.6533 3.82486 36.2323 4.05373 36.5616 4.22538C36.891 4.39703 37.1006 4.61636 37.1006 4.61636C37.1006 4.61636 37.3701 4.35889 37.9091 4.14909C38.4381 3.93929 38.8074 3.81532 39.6758 3.81532C40.5342 3.81532 41.3427 4.08234 41.692 4.40657C42.0414 4.74034 42.1612 4.94059 42.2909 5.51277C42.2909 5.51277 42.3608 5.93236 42.271 6.53314C42.1811 7.13392 41.3726 12.3979 41.3726 12.3979H39.0969C39.0969 12.3979 39.8954 7.21021 39.9353 6.90505C39.9753 6.60943 40.0651 5.98004 39.8455 5.70349C39.6259 5.42694 39.2366 5.36019 38.9372 5.37926C38.6378 5.39833 38.0189 5.48416 37.8592 6.42824C37.6895 7.37233 36.921 12.3979 36.921 12.3979H34.6552C34.6552 12.3979 35.4837 7.00041 35.5236 6.71433C35.5635 6.42824 35.6134 5.76071 35.2142 5.51277C34.8149 5.26482 34.0962 5.32204 33.8068 5.71303C33.5173 6.10401 33.4475 6.2852 33.3476 6.87645C33.2478 7.46769 32.4992 12.3979 32.4992 12.3979H30.2135V12.4074ZM43.4887 4.09187H45.7445C45.7445 4.09187 44.906 9.54658 44.8461 9.95664C44.7863 10.3667 44.8262 11.0056 45.2155 11.1868C45.6147 11.368 46.2535 11.3394 46.513 11.1201C46.7825 10.9007 47.0221 10.6719 47.1618 9.95664C47.3016 9.24142 48.0901 4.08234 48.0901 4.08234H50.3159C50.3159 4.08234 49.5573 9.10792 49.4775 9.71823C49.3876 10.3286 49.0782 11.3585 48.3995 11.8734C47.7208 12.3884 46.9822 12.6554 45.2055 12.6554C43.4288 12.6554 42.7301 11.635 42.6303 10.977C42.5205 10.319 42.6003 9.68009 42.7501 8.79322C42.8998 7.89682 43.4887 4.09187 43.4887 4.09187ZM49.8967 12.4074C49.8967 12.4074 50.7351 6.96227 50.815 6.48546C50.8849 6.00865 51.2941 5.13132 51.9329 4.64497C52.5717 4.15863 53.3802 3.82486 54.3584 3.82486C55.3365 3.82486 55.9154 4.05373 56.2448 4.22538C56.5742 4.39703 56.7838 4.61636 56.7838 4.61636C56.7838 4.61636 57.0533 4.35889 57.5923 4.14909C58.1213 3.93929 58.4906 3.81532 59.359 3.81532C60.2174 3.81532 61.0259 4.08234 61.3752 4.40657C61.7246 4.7308 61.8444 4.94059 61.9741 5.51277C61.9741 5.51277 62.044 5.93236 61.9541 6.53314C61.8643 7.13392 61.0558 12.3979 61.0558 12.3979H58.7801C58.7801 12.3979 59.5786 7.21021 59.6185 6.90505C59.6585 6.60943 59.7483 5.98004 59.5287 5.70349C59.3091 5.42694 58.9198 5.36019 58.6204 5.37926C58.321 5.39833 57.7021 5.48416 57.5424 6.42824C57.3727 7.37233 56.6042 12.3979 56.6042 12.3979H54.3384C54.3384 12.3979 55.1668 7.00041 55.2068 6.71433C55.2467 6.42824 55.2966 5.76071 54.8974 5.51277C54.4981 5.26482 53.7794 5.32204 53.49 5.71303C53.2005 6.10401 53.1307 6.2852 53.0308 6.87645C52.931 7.46769 52.1824 12.3979 52.1824 12.3979H49.8967V12.4074Z" fill="#FF0D87"/>
</svg>
